<?xml version="1.0" encoding="UTF-8"?>
<svg xmlns="http://www.w3.org/2000/svg" xmlns:xlink="http://www.w3.org/1999/xlink" width="32px" height="32px" viewBox="0 0 32 32" version="1.1">
<g id="surface1">
<path style=" stroke:none;fill-rule:nonzero;fill:rgb(0%,0%,0%);fill-opacity:1;" d="M 32 15.984375 C 32 7.160156 24.832031 0 16 0 C 7.167969 0 0 7.160156 0 15.984375 C 0 20.84375 2.207031 25.222656 5.664062 28.164062 C 5.695312 28.195312 5.726562 28.195312 5.726562 28.226562 C 6.015625 28.453125 6.304688 28.675781 6.625 28.898438 C 6.785156 28.996094 6.910156 29.121094 7.070312 29.25 C 9.714844 31.042969 12.835938 32 16.03125 32 C 19.226562 32 22.347656 31.042969 24.992188 29.25 C 25.152344 29.152344 25.28125 29.027344 25.441406 28.929688 C 25.726562 28.707031 26.046875 28.484375 26.335938 28.261719 C 26.367188 28.226562 26.398438 28.226562 26.398438 28.195312 C 29.792969 25.222656 32 20.84375 32 15.984375 Z M 16 29.984375 C 12.992188 29.984375 10.238281 29.027344 7.96875 27.429688 C 8 27.171875 8.0625 26.917969 8.128906 26.660156 C 8.320312 25.96875 8.597656 25.300781 8.960938 24.679688 C 9.3125 24.070312 9.726562 23.527344 10.238281 23.046875 C 10.71875 22.566406 11.296875 22.121094 11.871094 21.769531 C 12.480469 21.417969 13.121094 21.160156 13.824219 20.96875 C 14.535156 20.777344 15.265625 20.683594 16 20.683594 C 18.179688 20.667969 20.28125 21.503906 21.855469 23.015625 C 22.59375 23.753906 23.167969 24.617188 23.585938 25.605469 C 23.808594 26.183594 23.96875 26.789062 24.0625 27.429688 C 21.703125 29.089844 18.886719 29.980469 16 29.984375 Z M 11.105469 15.1875 C 10.820312 14.539062 10.679688 13.84375 10.6875 13.136719 C 10.6875 12.4375 10.816406 11.730469 11.105469 11.09375 C 11.390625 10.453125 11.777344 9.878906 12.257812 9.398438 C 12.734375 8.917969 13.3125 8.535156 13.953125 8.246094 C 14.59375 7.960938 15.296875 7.832031 16 7.832031 C 16.734375 7.832031 17.40625 7.960938 18.046875 8.246094 C 18.6875 8.535156 19.265625 8.921875 19.742188 9.398438 C 20.222656 9.878906 20.609375 10.453125 20.894531 11.09375 C 21.183594 11.730469 21.3125 12.4375 21.3125 13.136719 C 21.3125 13.875 21.183594 14.546875 20.894531 15.183594 C 20.617188 15.816406 20.226562 16.390625 19.742188 16.878906 C 19.253906 17.363281 18.679688 17.753906 18.046875 18.03125 C 16.726562 18.574219 15.242188 18.574219 13.921875 18.03125 C 13.289062 17.753906 12.714844 17.363281 12.222656 16.878906 C 11.738281 16.394531 11.359375 15.820312 11.105469 15.183594 Z M 25.953125 25.796875 C 25.953125 25.734375 25.921875 25.703125 25.921875 25.636719 C 25.605469 24.636719 25.140625 23.6875 24.542969 22.824219 C 23.945312 21.957031 23.210938 21.191406 22.367188 20.554688 C 21.722656 20.070312 21.027344 19.664062 20.289062 19.339844 C 20.625 19.117188 20.933594 18.863281 21.214844 18.574219 C 21.691406 18.101562 22.113281 17.578125 22.464844 17.007812 C 23.171875 15.839844 23.539062 14.5 23.519531 13.136719 C 23.53125 12.128906 23.332031 11.128906 22.945312 10.199219 C 22.558594 9.300781 22.003906 8.488281 21.3125 7.800781 C 20.621094 7.121094 19.804688 6.578125 18.910156 6.199219 C 17.980469 5.8125 16.976562 5.617188 15.96875 5.625 C 14.957031 5.617188 13.957031 5.8125 13.023438 6.203125 C 12.121094 6.578125 11.304688 7.132812 10.625 7.832031 C 9.945312 8.523438 9.402344 9.335938 9.023438 10.230469 C 8.632812 11.160156 8.4375 12.160156 8.449219 13.171875 C 8.449219 13.875 8.542969 14.546875 8.734375 15.183594 C 8.929688 15.855469 9.183594 16.464844 9.535156 17.039062 C 9.855469 17.613281 10.304688 18.125 10.785156 18.605469 C 11.070312 18.894531 11.390625 19.148438 11.742188 19.371094 C 11.003906 19.703125 10.304688 20.125 9.664062 20.621094 C 8.832031 21.261719 8.097656 22.027344 7.488281 22.859375 C 6.882812 23.71875 6.421875 24.667969 6.113281 25.671875 C 6.078125 25.734375 6.078125 25.796875 6.078125 25.828125 C 3.550781 23.273438 1.984375 19.820312 1.984375 15.984375 C 1.984375 8.28125 8.289062 1.980469 16 1.980469 C 23.710938 1.980469 30.015625 8.28125 30.015625 15.984375 C 30.011719 19.664062 28.550781 23.191406 25.953125 25.796875 Z M 25.953125 25.796875 "/>
</g>
</svg>
