<?xml version="1.0" encoding="UTF-8"?>
<svg xmlns="http://www.w3.org/2000/svg" xmlns:xlink="http://www.w3.org/1999/xlink" width="12px" height="12px" viewBox="0 0 12 12" version="1.1">
<g id="surface1">
<path style="fill:none;stroke-width:2;stroke-linecap:round;stroke-linejoin:round;stroke:rgb(0%,0%,0%);stroke-opacity:1;stroke-miterlimit:4;" d="M 13 15 L 16 12 M 16 12 L 13 9 M 16 12 L 8 12 M 7.203125 20 L 16.796875 20 C 17.921875 20 18.476562 20 18.90625 19.78125 C 19.28125 19.59375 19.59375 19.28125 19.78125 18.90625 C 20 18.476562 20 17.921875 20 16.796875 L 20 7.203125 C 20 6.078125 20 5.523438 19.78125 5.09375 C 19.59375 4.71875 19.28125 4.40625 18.90625 4.21875 C 18.476562 4 17.921875 4 16.796875 4 L 7.203125 4 C 6.078125 4 5.523438 4 5.09375 4.21875 C 4.71875 4.40625 4.40625 4.71875 4.21875 5.09375 C 4 5.523438 4 6.078125 4 7.203125 L 4 16.796875 C 4 17.921875 4 18.476562 4.21875 18.90625 C 4.40625 19.28125 4.71875 19.59375 5.09375 19.78125 C 5.523438 20 6.078125 20 7.203125 20 Z M 7.203125 20 " transform="matrix(0.5,0,0,0.5,0,0)"/>
</g>
</svg>
