<?xml version="1.0" encoding="UTF-8"?>
<svg xmlns="http://www.w3.org/2000/svg" xmlns:xlink="http://www.w3.org/1999/xlink" width="16px" height="37px" viewBox="0 0 37 37" version="1.1">
<g id="surface1">
<path style="fill:none;stroke-width:2;stroke-linecap:round;stroke-linejoin:round;stroke:rgb(0%,0%,0%);stroke-opacity:1;stroke-miterlimit:4;" d="M 6.298986 4.999155 L 21 4.999155 L 19.000845 12 L 7.375845 12 M 19.999155 16.000845 L 7.999155 16.000845 L 6 3 L 3 3 M 9 19.999155 C 9 20.55152 8.55152 21 7.999155 21 C 7.446791 21 7.000845 20.55152 7.000845 19.999155 C 7.000845 19.446791 7.446791 19.000845 7.999155 19.000845 C 8.55152 19.000845 9 19.446791 9 19.999155 Z M 19.999155 19.999155 C 19.999155 20.55152 19.553209 21 19.000845 21 C 18.44848 21 18 20.55152 18 19.999155 C 18 19.446791 18.44848 19.000845 19.000845 19.000845 C 19.553209 19.000845 19.999155 19.446791 19.999155 19.999155 Z M 19.999155 19.999155 " transform="matrix(1.541667,0,0,1.541667,0,0)"/>
</g>
</svg>
