<?xml version="1.0" encoding="UTF-8"?>
<svg xmlns="http://www.w3.org/2000/svg" xmlns:xlink="http://www.w3.org/1999/xlink" width="108px" height="23px" viewBox="0 0 23 23" version="1.1">
<g id="surface1">
<path style=" stroke:none;fill-rule:nonzero;fill:rgb(43.921569%,42.745098%,43.137255%);fill-opacity:1;" d="M 22.996094 11.25 L 22.996094 10.84375 L 22.492188 10.84375 L 22.492188 10.21875 L 22.476562 10.222656 L 22.003906 10.367188 L 21.996094 10.371094 L 21.996094 10.84375 L 21.25 10.84375 L 21.25 10.582031 C 21.25 10.457031 21.277344 10.363281 21.332031 10.300781 C 21.386719 10.238281 21.464844 10.207031 21.5625 10.207031 C 21.632812 10.207031 21.707031 10.222656 21.78125 10.253906 L 21.796875 10.261719 L 21.796875 9.835938 L 21.789062 9.835938 C 21.722656 9.808594 21.628906 9.796875 21.511719 9.796875 C 21.363281 9.796875 21.230469 9.828125 21.117188 9.890625 C 21 9.953125 20.90625 10.046875 20.84375 10.160156 C 20.78125 10.273438 20.746094 10.40625 20.746094 10.554688 L 20.746094 10.84375 L 20.398438 10.84375 L 20.398438 11.25 L 20.746094 11.25 L 20.746094 12.953125 L 21.25 12.953125 L 21.25 11.25 L 21.996094 11.25 L 21.996094 12.332031 C 21.996094 12.777344 22.203125 13.003906 22.621094 13.003906 C 22.6875 13.003906 22.757812 12.996094 22.832031 12.980469 C 22.90625 12.964844 22.957031 12.949219 22.988281 12.933594 L 22.996094 12.929688 L 22.996094 12.519531 L 22.972656 12.53125 C 22.945312 12.550781 22.914062 12.566406 22.871094 12.578125 C 22.832031 12.589844 22.800781 12.59375 22.773438 12.59375 C 22.675781 12.59375 22.605469 12.566406 22.558594 12.515625 C 22.515625 12.464844 22.492188 12.371094 22.492188 12.246094 L 22.492188 11.25 Z M 19.277344 12.59375 C 19.09375 12.59375 18.953125 12.535156 18.851562 12.414062 C 18.75 12.296875 18.695312 12.125 18.695312 11.90625 C 18.695312 11.683594 18.75 11.507812 18.851562 11.386719 C 18.953125 11.265625 19.09375 11.207031 19.273438 11.207031 C 19.445312 11.207031 19.585938 11.265625 19.683594 11.378906 C 19.785156 11.496094 19.835938 11.667969 19.835938 11.894531 C 19.835938 12.125 19.789062 12.300781 19.695312 12.417969 C 19.601562 12.535156 19.460938 12.59375 19.277344 12.59375 Z M 19.300781 10.792969 C 18.953125 10.792969 18.675781 10.898438 18.480469 11.097656 C 18.28125 11.296875 18.183594 11.578125 18.183594 11.925781 C 18.183594 12.253906 18.28125 12.519531 18.472656 12.714844 C 18.664062 12.90625 18.925781 13.003906 19.25 13.003906 C 19.585938 13.003906 19.855469 12.902344 20.054688 12.699219 C 20.25 12.492188 20.347656 12.21875 20.347656 11.878906 C 20.347656 11.542969 20.257812 11.277344 20.070312 11.085938 C 19.886719 10.890625 19.625 10.792969 19.300781 10.792969 Z M 17.375 10.792969 C 17.136719 10.792969 16.941406 10.855469 16.792969 10.976562 C 16.640625 11.09375 16.566406 11.25 16.566406 11.441406 C 16.566406 11.542969 16.582031 11.628906 16.613281 11.703125 C 16.648438 11.777344 16.695312 11.84375 16.765625 11.898438 C 16.832031 11.953125 16.933594 12.011719 17.070312 12.070312 C 17.183594 12.117188 17.269531 12.15625 17.324219 12.1875 C 17.375 12.21875 17.414062 12.25 17.433594 12.28125 C 17.457031 12.308594 17.464844 12.351562 17.464844 12.398438 C 17.464844 12.542969 17.359375 12.609375 17.140625 12.609375 C 17.058594 12.609375 16.96875 12.59375 16.867188 12.558594 C 16.765625 12.527344 16.671875 12.480469 16.585938 12.417969 L 16.566406 12.402344 L 16.566406 12.886719 L 16.574219 12.890625 C 16.644531 12.921875 16.734375 12.949219 16.839844 12.972656 C 16.945312 12.992188 17.039062 13.003906 17.125 13.003906 C 17.378906 13.003906 17.585938 12.945312 17.738281 12.824219 C 17.890625 12.703125 17.964844 12.542969 17.964844 12.34375 C 17.964844 12.203125 17.925781 12.082031 17.84375 11.984375 C 17.761719 11.886719 17.621094 11.796875 17.425781 11.714844 C 17.269531 11.652344 17.167969 11.601562 17.128906 11.5625 C 17.085938 11.523438 17.066406 11.46875 17.066406 11.398438 C 17.066406 11.339844 17.09375 11.289062 17.144531 11.25 C 17.195312 11.210938 17.265625 11.1875 17.355469 11.1875 C 17.441406 11.1875 17.527344 11.203125 17.609375 11.226562 C 17.695312 11.253906 17.769531 11.289062 17.832031 11.332031 L 17.855469 11.34375 L 17.855469 10.886719 L 17.847656 10.882812 C 17.789062 10.859375 17.710938 10.835938 17.621094 10.820312 C 17.527344 10.804688 17.445312 10.792969 17.375 10.792969 Z M 15.257812 12.59375 C 15.074219 12.59375 14.929688 12.535156 14.828125 12.414062 C 14.726562 12.296875 14.675781 12.125 14.675781 11.90625 C 14.675781 11.683594 14.726562 11.507812 14.828125 11.386719 C 14.929688 11.265625 15.074219 11.207031 15.253906 11.207031 C 15.425781 11.207031 15.566406 11.265625 15.664062 11.378906 C 15.765625 11.496094 15.816406 11.667969 15.816406 11.894531 C 15.816406 12.125 15.765625 12.300781 15.671875 12.417969 C 15.578125 12.535156 15.441406 12.59375 15.257812 12.59375 Z M 15.277344 10.792969 C 14.929688 10.792969 14.65625 10.898438 14.457031 11.097656 C 14.261719 11.296875 14.160156 11.578125 14.160156 11.925781 C 14.160156 12.253906 14.257812 12.519531 14.453125 12.714844 C 14.644531 12.90625 14.90625 13.003906 15.226562 13.003906 C 15.566406 13.003906 15.835938 12.902344 16.03125 12.699219 C 16.230469 12.492188 16.328125 12.21875 16.328125 11.878906 C 16.328125 11.542969 16.234375 11.277344 16.050781 11.085938 C 15.867188 10.890625 15.605469 10.792969 15.277344 10.792969 Z M 13.398438 11.210938 L 13.398438 10.84375 L 12.902344 10.84375 L 12.902344 12.953125 L 13.398438 12.953125 L 13.398438 11.875 C 13.398438 11.691406 13.441406 11.542969 13.523438 11.425781 C 13.605469 11.316406 13.710938 11.257812 13.84375 11.257812 C 13.890625 11.257812 13.9375 11.265625 13.992188 11.28125 C 14.046875 11.292969 14.085938 11.308594 14.109375 11.328125 L 14.128906 11.34375 L 14.128906 10.84375 L 14.121094 10.839844 C 14.074219 10.820312 14.011719 10.808594 13.925781 10.808594 C 13.804688 10.808594 13.691406 10.847656 13.597656 10.929688 C 13.511719 10.996094 13.453125 11.09375 13.40625 11.210938 Z M 12.015625 10.792969 C 11.789062 10.792969 11.585938 10.84375 11.414062 10.941406 C 11.238281 11.035156 11.105469 11.171875 11.015625 11.347656 C 10.925781 11.523438 10.878906 11.726562 10.878906 11.953125 C 10.878906 12.152344 10.921875 12.335938 11.011719 12.496094 C 11.101562 12.660156 11.222656 12.785156 11.382812 12.871094 C 11.539062 12.960938 11.722656 13.003906 11.925781 13.003906 C 12.160156 13.003906 12.363281 12.957031 12.523438 12.863281 L 12.527344 12.859375 L 12.527344 12.40625 L 12.507812 12.421875 C 12.433594 12.476562 12.355469 12.515625 12.265625 12.546875 C 12.179688 12.578125 12.097656 12.59375 12.027344 12.59375 C 11.832031 12.59375 11.675781 12.53125 11.5625 12.414062 C 11.449219 12.292969 11.394531 12.125 11.394531 11.910156 C 11.394531 11.699219 11.453125 11.523438 11.570312 11.398438 C 11.6875 11.269531 11.847656 11.207031 12.035156 11.207031 C 12.199219 11.207031 12.359375 11.261719 12.507812 11.371094 L 12.527344 11.382812 L 12.527344 10.90625 L 12.523438 10.902344 C 12.464844 10.871094 12.390625 10.84375 12.292969 10.824219 C 12.199219 10.804688 12.105469 10.792969 12.015625 10.792969 Z M 10.539062 10.84375 L 10.042969 10.84375 L 10.042969 12.953125 L 10.539062 12.953125 Z M 10.292969 9.949219 C 10.210938 9.949219 10.140625 9.976562 10.082031 10.03125 C 10.023438 10.085938 9.996094 10.15625 9.996094 10.238281 C 9.996094 10.316406 10.023438 10.386719 10.082031 10.441406 C 10.140625 10.492188 10.210938 10.519531 10.292969 10.519531 C 10.378906 10.519531 10.449219 10.492188 10.507812 10.441406 C 10.566406 10.386719 10.597656 10.316406 10.597656 10.238281 C 10.597656 10.15625 10.566406 10.089844 10.511719 10.03125 C 10.453125 9.976562 10.378906 9.949219 10.292969 9.949219 Z M 9.058594 10.691406 L 9.058594 12.953125 L 9.5625 12.953125 L 9.5625 10.011719 L 8.863281 10.011719 L 7.972656 12.195312 L 7.109375 10.011719 L 6.378906 10.011719 L 6.378906 12.953125 L 6.855469 12.953125 L 6.855469 10.691406 L 6.871094 10.691406 L 7.785156 12.953125 L 8.144531 12.953125 L 9.039062 10.691406 Z M 9.058594 10.691406 "/>
<path style=" stroke:none;fill-rule:nonzero;fill:rgb(94.509804%,31.764707%,10.588235%);fill-opacity:1;" d="M 2.332031 11.363281 L 0 11.363281 L 0 9.03125 L 2.332031 9.03125 Z M 2.332031 11.363281 "/>
<path style=" stroke:none;fill-rule:nonzero;fill:rgb(50.196081%,80.000001%,15.686275%);fill-opacity:1;" d="M 4.90625 11.363281 L 2.574219 11.363281 L 2.574219 9.03125 L 4.90625 9.03125 Z M 4.90625 11.363281 "/>
<path style=" stroke:none;fill-rule:nonzero;fill:rgb(0%,67.843139%,93.725491%);fill-opacity:1;" d="M 2.332031 13.9375 L 0 13.9375 L 0 11.605469 L 2.332031 11.605469 Z M 2.332031 13.9375 "/>
<path style=" stroke:none;fill-rule:nonzero;fill:rgb(98.431373%,73.725492%,3.529412%);fill-opacity:1;" d="M 4.90625 13.9375 L 2.574219 13.9375 L 2.574219 11.605469 L 4.90625 11.605469 Z M 4.90625 13.9375 "/>
</g>
</svg>
