<?xml version="1.0" encoding="UTF-8"?>
<svg xmlns="http://www.w3.org/2000/svg" xmlns:xlink="http://www.w3.org/1999/xlink" width="18px" height="18px" viewBox="0 0 18 18" version="1.1">
<g id="surface1">
<path style=" stroke:none;fill-rule:evenodd;fill:rgb(0%,0%,0%);fill-opacity:1;" d="M 3.820312 12.722656 L 5.089844 13.933594 L 1.273438 17.570312 L 0 16.359375 Z M 10.800781 12.429688 C 7.824219 12.429688 5.398438 10.121094 5.398438 7.285156 C 5.398438 4.449219 7.824219 2.144531 10.800781 2.144531 C 13.777344 2.144531 16.199219 4.449219 16.199219 7.285156 C 16.199219 10.121094 13.777344 12.429688 10.800781 12.429688 Z M 10.800781 0.429688 C 6.824219 0.429688 3.601562 3.5 3.601562 7.285156 C 3.601562 11.074219 6.824219 14.144531 10.800781 14.144531 C 14.777344 14.144531 18 11.074219 18 7.285156 C 18 3.5 14.777344 0.429688 10.800781 0.429688 Z M 10.800781 0.429688 "/>
</g>
</svg>
